<svg width="21" height="13" viewBox="0 0 21 13" fill="none" xmlns="http://www.w3.org/2000/svg">
<path d="M0.556356 1.27021C0.849368 0.977283 1.24672 0.812728 1.66104 0.812728C2.07536 0.812728 2.47272 0.977283 2.76573 1.27021L10.5001 9.00458L18.2345 1.27021C18.5292 0.985585 18.9239 0.828094 19.3335 0.831654C19.7432 0.835214 20.1351 0.99954 20.4248 1.28924C20.7145 1.57894 20.8789 1.97084 20.8824 2.38052C20.886 2.7902 20.7285 3.18489 20.4439 3.47958L11.6048 12.3186C11.3118 12.6116 10.9144 12.7761 10.5001 12.7761C10.0858 12.7761 9.68843 12.6116 9.39542 12.3186L0.556356 3.47958C0.263432 3.18657 0.098877 2.78921 0.098877 2.37489C0.098877 1.96058 0.263432 1.56322 0.556356 1.27021Z" fill="white"/>
</svg>
