<svg width="40" height="40" viewBox="0 0 40 40" fill="none" xmlns="http://www.w3.org/2000/svg">
<g clip-path="url(#clip0_93_281)">
<path fill-rule="evenodd" clip-rule="evenodd" d="M27.8021 22.298C27.8021 22.298 29.4191 23.895 29.8191 24.634C29.8269 24.6446 29.8329 24.6564 29.8371 24.669C30.0001 24.942 30.0401 25.156 29.9601 25.314C29.8251 25.575 29.3681 25.706 29.2131 25.717H26.3551C26.1561 25.717 25.7421 25.665 25.2381 25.317C24.8531 25.048 24.4701 24.605 24.0991 24.172C23.5451 23.529 23.0661 22.971 22.5811 22.971C22.5198 22.9708 22.459 22.981 22.4011 23.001C22.0341 23.117 21.5681 23.64 21.5681 25.033C21.5681 25.469 21.2241 25.717 20.9831 25.717H19.6741C19.2281 25.717 16.9061 25.561 14.8471 23.39C12.3241 20.732 10.0581 15.4 10.0361 15.353C9.89509 15.008 10.1911 14.82 10.5111 14.82H13.3971C13.7841 14.82 13.9101 15.054 13.9981 15.264C14.1001 15.505 14.4781 16.469 15.0981 17.552C16.1021 19.314 16.7191 20.031 17.2121 20.031C17.3047 20.0312 17.3958 20.0071 17.4761 19.961C18.1201 19.607 18.0001 17.307 17.9701 16.833C17.9701 16.741 17.9691 15.806 17.6391 15.354C17.4031 15.03 17.0011 14.904 16.7581 14.858C16.8231 14.764 16.9611 14.62 17.1381 14.535C17.5791 14.315 18.3761 14.283 19.1671 14.283H19.6061C20.4641 14.295 20.6861 14.35 20.9981 14.429C21.6261 14.579 21.6381 14.986 21.5831 16.372C21.5671 16.768 21.5501 17.214 21.5501 17.739C21.5501 17.851 21.5451 17.976 21.5451 18.103C21.5261 18.814 21.5011 19.615 22.0031 19.944C22.0682 19.9845 22.1434 20.006 22.2201 20.006C22.3941 20.006 22.9151 20.006 24.3281 17.581C24.9481 16.51 25.4281 15.247 25.4611 15.152C25.4891 15.099 25.5731 14.95 25.6751 14.89C25.7476 14.8514 25.8289 14.8321 25.9111 14.834H29.3061C29.6761 14.834 29.9271 14.89 29.9761 15.03C30.0581 15.257 29.9601 15.95 28.4101 18.046C28.1491 18.395 27.9201 18.697 27.7191 18.961C26.3141 20.805 26.3141 20.898 27.8021 22.298V22.298Z" fill="white"/>
</g>
<rect x="1" y="1" width="38" height="38" rx="4" stroke="#D5621D" stroke-width="2"/>
<defs>
<clipPath id="clip0_93_281">
<rect width="20" height="20" fill="white" transform="translate(10 10)"/>
</clipPath>
</defs>
</svg>
